<?xml version="1.0" encoding="utf-8"?>
<!-- Generator: Adobe Illustrator 23.0.2, SVG Export Plug-In . SVG Version: 6.00 Build 0)  -->
<svg version="1.1" id="Layer_1" xmlns="http://www.w3.org/2000/svg" xmlns:xlink="http://www.w3.org/1999/xlink" x="0px" y="0px"
	 viewBox="0 0 110.1 111.5" style="enable-background:new 0 0 110.1 111.5;" xml:space="preserve">
<title>Artboard 8</title>
<path d="M34,66.5c-5.9,0-10.7,4.8-10.7,10.7c0,5.9,4.8,10.7,10.7,10.7c5.9,0,10.7-4.8,10.7-10.7c0-2.8-1.1-5.6-3.1-7.6
	C39.5,67.6,36.8,66.5,34,66.5z M37.3,80.5c-1.8,1.8-4.8,1.8-6.6,0c-1.8-1.8-1.8-4.8,0-6.6c1.8-1.8,4.8-1.8,6.6,0
	c0.9,0.9,1.4,2.1,1.4,3.3C38.7,78.5,38.2,79.7,37.3,80.5z M96.1,8.7c-1.4-1.4-3.2-2.2-5.2-2.2l0,0c-2,0-3.8,0.8-5.2,2.2l-9.2,9.2
	c-1.4,1.4-2.1,3.4-2,5.4L58.9,38.9c-7.9-3.5-16.3-2.5-21.6,2.8c-1.7,1.7-2.9,3.7-3.7,5.9c-0.5,1.2-1.7,2-3,2
	c-14.1,0.7-25,12.8-24.3,27c0.7,15.8,13.6,28.3,29.5,28.5c13.8,0.2,25.3-10.5,26-24.3c0-1.3,0.8-2.4,2-2.9c2.2-0.8,4.2-2.1,5.9-3.7
	c5.3-5.3,6.3-13.8,2.8-21.6l15.5-15.6c2,0.1,4-0.6,5.4-2l9.2-9.2c2.9-2.9,2.9-7.5,0-10.4c0,0,0,0,0,0L96.1,8.7z M98.3,21.3l-9.2,9.2
	c-0.2,0.2-0.6,0.4-0.9,0.3l-1-0.1c-0.9-0.1-1.8,0.2-2.5,0.9L66.6,49.6c-0.9,1-1.1,2.4-0.5,3.6c3.4,6,3.1,12.7-0.7,16.5
	c-1.1,1-2.3,1.8-3.7,2.3c-3.4,1.3-5.8,4.5-5.9,8.2l0,0c-0.3,4.9-2.3,9.5-5.7,12.9c-8.1,8.1-21.9,7.6-30.7-1.2
	c-4.2-4.2-6.7-9.8-7-15.7C11.6,65.4,20,56.1,30.8,55.5c0,0,0.1,0,0.1,0c3.7-0.2,6.9-2.5,8.2-5.9c0.5-1.4,1.3-2.7,2.3-3.7
	c2.1-2.1,5-3.2,8-3.1c3,0.1,5.9,0.9,8.5,2.4c1.2,0.7,2.6,0.5,3.6-0.5l18.2-18.1c0.7-0.7,1-1.6,0.9-2.5l-0.1-1c0-0.3,0.1-0.6,0.3-0.9
	l9.2-9.2c0.3-0.3,0.6-0.4,1-0.4l0,0c0.4,0,0.7,0.1,1,0.4l6.4,6.4C98.9,19.9,98.9,20.8,98.3,21.3L98.3,21.3z"/>
</svg>
